<svg xmlns="http://www.w3.org/2000/svg" viewBox="0 0 361 144"><defs><style>.cls-1{fill:#eee;}.cls-2{fill:#231f20;}.cls-3{fill:#64bbe3;}</style></defs><title>YOS</title><g id="Layer_2" data-name="Layer 2"><g id="Layer_1-2" data-name="Layer 1"><rect class="cls-1" width="361" height="144"/><polygon class="cls-2" points="168 18 132 18 96 54 96 72 114 72 168 18"/><polygon class="cls-2" points="114 72 78 72 42 108 42 126 60 126 114 72"/><polygon class="cls-3" points="24 18 60 18 96 54 96 72 78 72 24 18"/><polygon class="cls-3" points="186 18 222 18 258 54 258 72 240 72 186 18"/><polygon class="cls-2" points="222 18 186 18 150 54 150 72 168 72 222 18"/><polygon class="cls-2" points="339 18 303 18 267 54 267 72 285 72 339 18"/><polygon class="cls-2" points="186 126 222 126 258 90 258 72 240 72 186 126"/><polygon class="cls-2" points="267 126 303 126 339 90 339 72 321 72 267 126"/><polygon class="cls-3" points="222 126 186 126 150 90 150 72 168 72 222 126"/></g></g></svg>